<svg width="429" height="97" viewBox="0 0 429 97" fill="none" xmlns="http://www.w3.org/2000/svg">
<g clip-path="url(#clip0_401_93)">
<path d="M8.93115 23.8171C9.16996 23.8171 9.39479 23.9099 9.56374 24.0788C9.80508 24.3202 9.88638 24.672 9.77587 24.9985L9.63487 25.4164L9.21696 25.5574C9.12296 25.5891 9.02642 25.6044 8.92607 25.6044C8.68726 25.6044 8.4637 25.5116 8.29603 25.344C7.94671 24.9947 7.94671 24.4269 8.29603 24.0775C8.46751 23.9111 8.69235 23.8171 8.93115 23.8171ZM55.2203 65.9754L55.6153 66.171C55.924 66.3247 56.1158 66.6308 56.1158 66.9725C56.1158 67.4667 55.7144 67.8681 55.2203 67.8681C54.7261 67.8681 54.3247 67.4667 54.3247 66.9725C54.3247 66.6321 54.5165 66.3247 54.8252 66.171L55.2203 65.9754ZM8.93115 22.4199C8.3443 22.4199 7.75744 22.6434 7.31032 23.0918C6.41479 23.9873 6.41479 25.4392 7.31032 26.3335C7.75744 26.7806 8.34176 27.0029 8.92734 27.0029C9.17631 27.0029 9.42528 26.9623 9.66282 26.8822L24.4815 41.701H46.2028L54.2028 49.701V64.9198C53.447 65.2945 52.9262 66.0719 52.9262 66.9725C52.9262 68.239 53.9526 69.2653 55.219 69.2653C56.4854 69.2653 57.5118 68.239 57.5118 66.9725C57.5118 66.0719 56.991 65.2945 56.2352 64.9198V48.8588L47.0449 39.6686H25.3237L11.1007 25.4456C11.37 24.6466 11.1884 23.7282 10.552 23.0918C10.1049 22.6447 9.51801 22.4199 8.93115 22.4199Z" fill="#F33535"/>
<path d="M29.4761 4.35571C29.9703 4.35571 30.3717 4.75711 30.3717 5.25123C30.3717 5.59166 30.1799 5.89906 29.8712 6.05149L29.4761 6.24711L29.0811 6.05149C28.7724 5.89779 28.5806 5.59166 28.5806 5.25123C28.5806 4.75711 28.9833 4.35571 29.4761 4.35571ZM61.7404 73.0888L62.1355 73.2844C62.4442 73.4381 62.636 73.7443 62.636 74.0847C62.636 74.5788 62.2346 74.9802 61.7404 74.9802C61.2463 74.9802 60.8449 74.5788 60.8449 74.0847C60.8449 73.7443 61.0367 73.4369 61.3454 73.2844L61.7404 73.0888ZM29.4761 2.95844C28.2097 2.95844 27.1833 3.98479 27.1833 5.25123C27.1833 6.15184 27.7042 6.92923 28.46 7.30395V26.256L36.1792 33.6997H49.6337L60.7242 44.7902V72.0345C59.9684 72.4092 59.4476 73.1866 59.4476 74.0872C59.4476 75.3537 60.474 76.38 61.7404 76.38C63.0069 76.38 64.0332 75.3537 64.0332 74.0872C64.0332 73.1866 63.5124 72.4092 62.7566 72.0345V43.9481L50.4746 31.666H36.9998L30.4923 25.391V7.30268C31.2481 6.92796 31.7689 6.15057 31.7689 5.24996C31.7689 3.9848 30.7426 2.95844 29.4761 2.95844Z" fill="#F33535"/>
<path d="M87.5569 24.2617C87.7957 24.2617 88.0205 24.3544 88.1895 24.5234C88.3584 24.6923 88.4512 24.9172 88.4512 25.156C88.4512 25.3948 88.3584 25.6196 88.1895 25.7886C88.0218 25.9562 87.7982 26.049 87.5594 26.049C87.4604 26.049 87.3626 26.0324 87.2686 26.002L86.8506 25.861L86.7096 25.443C86.6004 25.1166 86.6817 24.7647 86.9218 24.5234C87.0933 24.3557 87.3181 24.2617 87.5569 24.2617ZM68.2606 79.6941L68.6556 79.8897C68.9643 80.0434 69.1561 80.3495 69.1561 80.6899C69.1561 81.1841 68.7547 81.5855 68.2606 81.5855C67.7664 81.5855 67.365 81.1841 67.365 80.6899C67.365 80.3495 67.5569 80.0421 67.8655 79.8884L68.2606 79.6941ZM87.5569 22.8644C86.97 22.8644 86.3832 23.088 85.9361 23.5364C85.2997 24.1728 85.118 25.0912 85.3873 25.8902L74.5699 36.7076V50.4263L67.2444 57.7518V78.6398C66.4886 79.0145 65.9678 79.7919 65.9678 80.6925C65.9678 81.9589 66.9941 82.9853 68.2606 82.9853C69.527 82.9853 70.5534 81.9589 70.5534 80.6925C70.5534 79.7919 70.0326 79.0145 69.2768 78.6398V58.5927L76.6023 51.2672V37.5485L86.824 27.3268C87.0628 27.4068 87.3117 27.4475 87.5594 27.4475C88.145 27.4475 88.7306 27.2252 89.1765 26.7781C90.072 25.8825 90.072 24.4307 89.1765 23.5364C88.7306 23.0893 88.1438 22.8644 87.5569 22.8644Z" fill="#F33535"/>
<path d="M15.3458 14.3119C15.5846 14.3119 15.8095 14.4046 15.9784 14.5736C16.2198 14.8149 16.3011 15.1668 16.1905 15.4932L16.0495 15.9111L15.6329 16.0521C15.5389 16.0839 15.4424 16.0991 15.3433 16.0991C15.1045 16.0991 14.8809 16.0064 14.7132 15.8387C14.5443 15.6698 14.4516 15.4449 14.4516 15.2061C14.4516 14.9673 14.5443 14.7425 14.7132 14.5736C14.8822 14.4046 15.107 14.3119 15.3458 14.3119ZM28.1131 32.4548C28.3519 32.4548 28.5755 32.5476 28.7431 32.7152C28.9121 32.8842 29.0048 33.109 29.0048 33.3478C29.0048 33.5866 28.9121 33.8115 28.7431 33.9804C28.5742 34.1493 28.3494 34.2421 28.1105 34.2421C27.8717 34.2421 27.6469 34.1493 27.478 33.9804C27.2366 33.7391 27.1553 33.3872 27.2658 33.0607L27.4068 32.6428L27.8247 32.5018C27.9162 32.4701 28.014 32.4548 28.1131 32.4548ZM15.3458 12.9146C14.759 12.9146 14.1721 13.1382 13.725 13.5866C12.8295 14.4821 12.8295 15.934 13.725 16.8282C14.1721 17.2754 14.7564 17.4977 15.342 17.4977C15.591 17.4977 15.84 17.457 16.0775 17.377L19.5669 20.8664V26.2433L25.9384 32.6149C25.6691 33.4139 25.8508 34.3323 26.4872 34.9687C26.9343 35.4158 27.5212 35.6406 28.108 35.6406C28.6949 35.6406 29.2817 35.4171 29.7288 34.9687C30.6244 34.0731 30.6244 32.6212 29.7288 31.727C29.2817 31.2799 28.6974 31.0576 28.1118 31.0576C27.8628 31.0576 27.6139 31.0982 27.3763 31.1782L21.6005 25.4024V20.0255L17.5154 15.9403C17.7847 15.1414 17.6031 14.223 16.9667 13.5866C16.5195 13.1382 15.9327 12.9146 15.3458 12.9146Z" fill="#F33535"/>
<path d="M2.2928 43.2253C2.78692 43.2253 3.18832 43.6267 3.18832 44.1208C3.18832 44.4612 2.99651 44.7686 2.68784 44.9211L2.2928 45.1167L1.89775 44.9211C1.58908 44.7686 1.39727 44.4612 1.39727 44.1208C1.39727 43.6267 1.79994 43.2253 2.2928 43.2253ZM9.82156 59.8922C10.0604 59.8922 10.2839 59.9849 10.4516 60.1526C10.6205 60.3215 10.7133 60.5464 10.7133 60.7852C10.7133 61.024 10.6205 61.2488 10.4516 61.4178C10.2827 61.5867 10.0578 61.6794 9.81902 61.6794C9.58021 61.6794 9.35538 61.5867 9.18643 61.4178C8.94509 61.1764 8.86379 60.8246 8.9743 60.4981L9.1153 60.0802L9.53321 59.9392C9.62467 59.9074 9.72248 59.8922 9.82156 59.8922ZM2.2928 41.828C1.02636 41.828 0 42.8544 0 44.1208C0 45.0214 0.520802 45.7988 1.2766 46.1735V53.682L7.64816 60.0535C7.37887 60.8525 7.56052 61.7709 8.19691 62.4073C8.64404 62.8544 9.23089 63.0792 9.81775 63.0792C10.4046 63.0792 10.9915 62.8557 11.4386 62.4073C12.3341 61.5118 12.3341 60.0599 11.4386 59.1656C10.9915 58.7185 10.4071 58.4962 9.82156 58.4962C9.57259 58.4962 9.32362 58.5368 9.08608 58.6169L3.31027 52.8411V46.1748C4.06606 45.8001 4.58686 45.0227 4.58686 44.1221C4.58559 42.8544 3.55923 41.828 2.2928 41.828Z" fill="#F33535"/>
<path d="M73.1726 8.92858C73.6667 8.92858 74.0681 9.32998 74.0681 9.82411C74.0681 10.1645 73.8763 10.4719 73.5676 10.6244L73.1726 10.82L72.7775 10.6244C72.4689 10.4719 72.277 10.1645 72.277 9.82411C72.277 9.32998 72.6797 8.92858 73.1726 8.92858ZM68.5997 45.3974L68.9947 45.593C69.3034 45.7455 69.4952 46.0529 69.4952 46.3933C69.4952 46.8874 69.0938 47.2888 68.5997 47.2888C68.1056 47.2888 67.7042 46.8874 67.7042 46.3933C67.7042 46.0529 67.896 45.7455 68.2046 45.593L68.5997 45.3974ZM73.1726 7.53131C71.9061 7.53131 70.8798 8.55767 70.8798 9.82411C70.8798 10.7247 71.4006 11.5021 72.1564 11.8768V20.8295L67.5835 25.4024V44.3431C66.8277 44.7178 66.3069 45.4952 66.3069 46.3958C66.3069 47.6623 67.3332 48.6886 68.5997 48.6886C69.8661 48.6886 70.8925 47.6623 70.8925 46.3958C70.8925 45.4952 70.3717 44.7178 69.6159 44.3431V26.2433L74.1888 21.6704V11.8756C74.9446 11.5008 75.4654 10.7234 75.4654 9.82284C75.4654 8.55767 74.439 7.53131 73.1726 7.53131Z" fill="#F33535"/>
<path d="M82.3184 15.7879C82.8125 15.7879 83.2139 16.1893 83.2139 16.6834C83.2139 17.0238 83.0221 17.3313 82.7135 17.4837L82.3184 17.6793L81.9234 17.4837C81.6147 17.33 81.4229 17.0238 81.4229 16.6834C81.4229 16.1893 81.8256 15.7879 82.3184 15.7879ZM77.0774 25.5955C77.1764 25.5955 77.2743 25.612 77.3683 25.6425L77.7862 25.7835L77.9272 26.2014C78.0364 26.5278 77.9551 26.8797 77.715 27.1211C77.5461 27.29 77.3213 27.3827 77.0824 27.3827C76.8436 27.3827 76.6188 27.29 76.4499 27.1211C76.1005 26.7717 76.1005 26.2039 76.4499 25.8546C76.615 25.6869 76.8386 25.5955 77.0774 25.5955ZM82.3184 14.3906C81.052 14.3906 80.0256 15.417 80.0256 16.6834C80.0256 17.584 80.5464 18.3614 81.3022 18.7361V20.8295L77.8128 24.3189C77.574 24.2389 77.3251 24.1982 77.0774 24.1982C76.4918 24.1982 75.9062 24.4205 75.4603 24.8676C74.5648 25.7632 74.5648 27.215 75.4603 28.1093C75.9075 28.5564 76.4943 28.7813 77.0812 28.7813C77.668 28.7813 78.2549 28.5577 78.702 28.1093C79.3384 27.4729 79.5201 26.5545 79.2508 25.7555L83.3359 21.6704V18.7349C84.0917 18.3601 84.6125 17.5828 84.6125 16.6822C84.6112 15.417 83.5848 14.3906 82.3184 14.3906Z" fill="#F33535"/>
<path d="M64.0269 4.35571C64.521 4.35571 64.9224 4.75711 64.9224 5.25123C64.9224 5.59166 64.7306 5.89906 64.4219 6.05149L64.0269 6.24711L63.6318 6.05149C63.3232 5.89779 63.1314 5.59166 63.1314 5.25123C63.1314 4.75711 63.534 4.35571 64.0269 4.35571ZM41.1688 22.6409C41.5092 22.6409 41.8166 22.8327 41.969 23.1414L42.1646 23.5365L41.969 23.9315C41.8153 24.2402 41.5092 24.432 41.1688 24.432C40.6746 24.432 40.2733 24.0306 40.2733 23.5365C40.2733 23.0423 40.6746 22.6409 41.1688 22.6409ZM64.0269 2.95844C62.7605 2.95844 61.7341 3.98479 61.7341 5.25123C61.7341 6.15184 62.2549 6.92923 63.0107 7.30395V11.6838L52.1742 22.5203H43.2215C42.8468 21.7645 42.0694 21.2437 41.1688 21.2437C39.9023 21.2437 38.876 22.27 38.876 23.5365C38.876 24.8029 39.9023 25.8292 41.1688 25.8292C42.0694 25.8292 42.8468 25.3084 43.2215 24.5526H53.0164L65.0444 12.5247V7.30268C65.8002 6.92796 66.321 6.15057 66.321 5.24996C66.3197 3.9848 65.2933 2.95844 64.0269 2.95844Z" fill="#F33535"/>
<path d="M49.6425 1.39727C49.8813 1.39727 50.1062 1.49 50.2751 1.65894C50.5165 1.90029 50.5978 2.25215 50.4872 2.5786L50.3462 2.99651L49.9283 3.13751C49.8343 3.16927 49.7378 3.18451 49.6374 3.18451C49.3986 3.18451 49.1751 3.09178 49.0074 2.92411C48.8385 2.75517 48.7457 2.53033 48.7457 2.29153C48.7457 2.05272 48.8385 1.82789 49.0074 1.65894C49.1763 1.49 49.4037 1.39727 49.6425 1.39727ZM41.1687 15.7816C41.5091 15.7816 41.8165 15.9734 41.969 16.282L42.1646 16.6771L41.969 17.0721C41.8153 17.3808 41.5091 17.5726 41.1687 17.5726C40.6746 17.5726 40.2732 17.1712 40.2732 16.6771C40.2732 16.183 40.6746 15.7816 41.1687 15.7816ZM49.6425 0C49.0557 0 48.4688 0.223564 48.0217 0.671961C47.1262 1.56749 47.1262 3.01938 48.0217 3.91363C48.4688 4.36076 49.0531 4.58306 49.6387 4.58306C49.8877 4.58306 50.1367 4.54241 50.3742 4.46238L55.7296 9.81775L49.8864 15.6609H43.2202C42.8454 14.9051 42.068 14.3843 41.1674 14.3843C39.901 14.3843 38.8746 15.4106 38.8746 16.6771C38.8746 17.9435 39.901 18.9699 41.1674 18.9699C42.068 18.9699 42.8454 18.4491 43.2202 17.6933H50.7286L58.6041 9.81775L51.8121 3.02573C52.0814 2.22674 51.8998 1.30836 51.2634 0.671961C50.8162 0.224834 50.2294 0 49.6425 0Z" fill="#F33535"/>
<path d="M38.2103 1.39727C38.4491 1.39727 38.674 1.49 38.8429 1.65894C39.0843 1.90029 39.1656 2.25215 39.055 2.5786L38.914 2.99651L38.4961 3.13751C38.4021 3.16927 38.3056 3.18451 38.2052 3.18451C37.9664 3.18451 37.7429 3.09178 37.5752 2.92411C37.2259 2.57479 37.2259 2.00699 37.5752 1.65767C37.7467 1.49127 37.9715 1.39727 38.2103 1.39727ZM44.1183 7.30393C44.3571 7.30393 44.5806 7.39665 44.7483 7.56433C45.0976 7.91365 45.0976 8.48145 44.7483 8.83076C44.5793 8.99971 44.3545 9.09243 44.1157 9.09243C43.8769 9.09243 43.6521 8.99971 43.4831 8.83076C43.2418 8.58942 43.1605 8.23756 43.271 7.9111L43.412 7.49319L43.8299 7.3522C43.9214 7.31917 44.0192 7.30393 44.1183 7.30393ZM38.2103 0C37.6235 0 37.0366 0.223564 36.5895 0.671961C35.694 1.56749 35.694 3.01938 36.5895 3.91363C37.0366 4.36076 37.6209 4.58306 38.2065 4.58306C38.4555 4.58306 38.7045 4.54241 38.942 4.46238L41.9436 7.46398C41.6743 8.26296 41.8559 9.18135 42.4923 9.81775C42.9395 10.2649 43.5263 10.4897 44.1132 10.4897C44.7 10.4897 45.2869 10.2661 45.734 9.81775C46.6295 8.92222 46.6295 7.47033 45.734 6.57607C45.2869 6.12895 44.7026 5.90665 44.117 5.90665C43.868 5.90665 43.619 5.9473 43.3815 6.02733L40.3799 3.02573C40.6492 2.22674 40.4676 1.30836 39.8312 0.671961C39.384 0.224834 38.7972 0 38.2103 0Z" fill="#F33535"/>
<path d="M62.406 21.9753C62.6448 21.9753 62.8696 22.068 63.0386 22.2369C63.3879 22.5863 63.3879 23.1541 63.0386 23.5034C62.8709 23.6711 62.6473 23.7638 62.4085 23.7638C62.3095 23.7638 62.2116 23.7473 62.1177 23.7168L61.6997 23.5758L61.5587 23.1579C61.4495 22.8314 61.5308 22.4796 61.7709 22.2382C61.9424 22.0693 62.1672 21.9753 62.406 21.9753ZM62.4098 32.4548C62.6486 32.4548 62.8722 32.5475 63.0399 32.7152C63.3892 33.0645 63.3892 33.6323 63.0399 33.9817C62.8709 34.1506 62.6461 34.2433 62.4073 34.2433C62.1685 34.2433 61.9436 34.1506 61.7747 33.9817C61.5333 33.7403 61.452 33.3885 61.5626 33.062L61.7036 32.6441L62.1215 32.5031C62.2129 32.4701 62.3107 32.4548 62.4098 32.4548ZM62.406 20.578C61.8191 20.578 61.2323 20.8016 60.7852 21.25C60.1488 21.8864 59.9671 22.8047 60.2364 23.6037L58.4377 25.4024V30.8175L60.2364 32.6161C59.9671 33.4151 60.1488 34.3335 60.7852 34.9699C61.2323 35.417 61.8191 35.6419 62.406 35.6419C62.9929 35.6419 63.5797 35.4183 64.0268 34.9699C64.9224 34.0744 64.9224 32.6225 64.0268 31.7282C63.5797 31.2811 62.9941 31.0588 62.4098 31.0588C62.1608 31.0588 61.9119 31.0995 61.6743 31.1795L60.4714 29.9766V26.2459L61.6743 25.0429C61.9131 25.123 62.1621 25.1636 62.4098 25.1636C62.9954 25.1636 63.581 24.9413 64.0268 24.4942C64.9224 23.5987 64.9224 22.1468 64.0268 21.2525C63.5797 20.8028 62.9929 20.578 62.406 20.578Z" fill="#F33535"/>
<path d="M6.20007 33.4075C6.43888 33.4075 6.66371 33.5003 6.83266 33.6692C7.074 33.9105 7.1553 34.2624 7.04479 34.5889L6.90379 35.0068L6.48588 35.1478C6.39188 35.1795 6.29534 35.1948 6.19499 35.1948C5.95618 35.1948 5.73262 35.102 5.56495 34.9344C5.396 34.7654 5.30328 34.5406 5.30328 34.3018C5.30328 34.063 5.396 33.8381 5.56495 33.6692C5.73389 33.5003 5.96126 33.4075 6.20007 33.4075ZM41.156 47.7918C41.6501 47.7918 42.0515 48.1932 42.0515 48.6873C42.0515 49.1815 41.6501 49.5829 41.156 49.5829C40.8156 49.5829 40.5082 49.3911 40.3558 49.0824L40.1601 48.6873L40.3558 48.2923C40.5082 47.9836 40.8156 47.7918 41.156 47.7918ZM6.20007 32.0103C5.61322 32.0103 5.02636 32.2338 4.57924 32.6822C3.68371 33.5777 3.68371 35.0296 4.57924 35.9239C5.02636 36.371 5.61068 36.5933 6.19626 36.5933C6.44523 36.5933 6.6942 36.5527 6.93173 36.4726L20.1626 49.7035H39.1033C39.478 50.4593 40.2554 50.9801 41.156 50.9801C42.4225 50.9801 43.4488 49.9538 43.4488 48.6873C43.4488 47.4209 42.4225 46.3945 41.156 46.3945C40.2554 46.3945 39.478 46.9153 39.1033 47.6711H21.0048L8.36965 35.036C8.63895 34.237 8.4573 33.3186 7.82091 32.6822C7.37378 32.2351 6.78693 32.0103 6.20007 32.0103Z" fill="#F33535"/>
<path d="M92.1298 33.4075C92.3686 33.4075 92.5935 33.5003 92.7624 33.6692C93.1117 34.0185 93.1117 34.5863 92.7624 34.9356C92.5947 35.1033 92.3712 35.196 92.1323 35.196C92.0333 35.196 91.9355 35.1795 91.8415 35.149L91.4236 35.008L91.2826 34.5901C91.1733 34.2637 91.2546 33.9118 91.4947 33.6705C91.6662 33.5015 91.891 33.4075 92.1298 33.4075ZM82.8684 47.6838L83.2635 47.8795C83.5722 48.0332 83.764 48.3393 83.764 48.681C83.764 49.1751 83.3626 49.5765 82.8684 49.5765C82.3743 49.5765 81.9729 49.1751 81.9729 48.681C81.9729 48.3406 82.1647 48.0332 82.4734 47.8795L82.8684 47.6838ZM92.1298 32.0103C91.543 32.0103 90.9561 32.2338 90.509 32.6822C89.8726 33.3186 89.6909 34.237 89.9602 35.036L81.8535 43.1427V46.6283C81.0977 47.003 80.5769 47.7804 80.5769 48.681C80.5769 49.9474 81.6033 50.9738 82.8697 50.9738C84.1361 50.9738 85.1625 49.9474 85.1625 48.681C85.1625 47.7804 84.6417 47.003 83.8859 46.6283V43.9849L91.3982 36.4726C91.637 36.5527 91.8859 36.5933 92.1336 36.5933C92.7192 36.5933 93.3048 36.371 93.7506 35.9239C94.6462 35.0284 94.6462 33.5765 93.7506 32.6822C93.3035 32.2351 92.7167 32.0103 92.1298 32.0103Z" fill="#F33535"/>
<path d="M48.0217 54.6575C48.5159 54.6575 48.9173 55.0589 48.9173 55.5531C48.9173 55.8935 48.7254 56.2009 48.4168 56.3533L48.0217 56.5489L47.6267 56.3533C47.318 56.1996 47.1262 55.8935 47.1262 55.5531C47.1262 55.0589 47.5289 54.6575 48.0217 54.6575ZM48.0154 93.5208C48.5095 93.5208 48.9109 93.9222 48.9109 94.4163C48.9109 94.9104 48.5095 95.3118 48.0154 95.3118C47.675 95.3118 47.3676 95.12 47.2151 94.8113L47.0195 94.4163L47.2151 94.0212C47.3676 93.7126 47.675 93.5208 48.0154 93.5208ZM48.0217 53.2603C46.7553 53.2603 45.7289 54.2866 45.7289 55.5531C45.7289 56.4537 46.2497 57.2311 47.0055 57.6058V84.8501L36.4231 95.4325H45.9639C46.3387 96.1883 47.116 96.7091 48.0167 96.7091C49.2831 96.7091 50.3094 95.6827 50.3094 94.4163C50.3094 93.1498 49.2831 92.1235 48.0167 92.1235C47.116 92.1235 46.3387 92.6443 45.9639 93.4001H41.3301L49.0392 85.6909V57.6045C49.795 57.2298 50.3158 56.4524 50.3158 55.5518C50.3145 54.2866 49.2882 53.2603 48.0217 53.2603Z" fill="#F33535"/>
<path d="M94.4162 42.5533C94.655 42.5533 94.8799 42.646 95.0488 42.8149C95.3981 43.1643 95.3981 43.7321 95.0488 44.0814C94.8811 44.2491 94.6576 44.3418 94.4188 44.3418C94.3197 44.3418 94.2219 44.3253 94.1279 44.2948L93.71 44.1538L93.569 43.7359C93.4597 43.4094 93.541 43.0576 93.7811 42.8162C93.9526 42.6473 94.1774 42.5533 94.4162 42.5533ZM75.5441 84.267L75.9392 84.4626C76.2479 84.6163 76.4397 84.9224 76.4397 85.2641C76.4397 85.7582 76.0383 86.1596 75.5441 86.1596C75.05 86.1596 74.6486 85.7582 74.6486 85.2641C74.6486 84.9237 74.8404 84.6163 75.1491 84.4626L75.5441 84.267ZM94.4162 41.156C93.8294 41.156 93.2425 41.3796 92.7954 41.828C92.159 42.4644 91.9773 43.3828 92.2466 44.1817L90.448 45.9804V54.5304H81.8979L74.5279 61.9004V83.2126C73.7722 83.5874 73.2513 84.3648 73.2513 85.2654C73.2513 86.5318 74.2777 87.5582 75.5441 87.5582C76.8106 87.5582 77.8369 86.5318 77.8369 85.2654C77.8369 84.3648 77.3161 83.5874 76.5603 83.2126V62.7426L82.7401 56.5628H92.4816V46.8213L93.6845 45.6184C93.9234 45.6984 94.1723 45.7391 94.42 45.7391C95.0056 45.7391 95.5912 45.5168 96.0371 45.0696C96.9326 44.1741 96.9326 42.7222 96.0371 41.828C95.5899 41.3808 95.0031 41.156 94.4162 41.156Z" fill="#F33535"/>
<path d="M91.4578 61.5105C91.952 61.5105 92.3534 61.9119 92.3534 62.406C92.3534 62.9001 91.952 63.3015 91.4578 63.3015C91.1174 63.3015 90.81 63.1097 90.6576 62.8011L90.462 62.406L90.6576 62.011C90.81 61.7023 91.1174 61.5105 91.4578 61.5105ZM85.0202 76.1514C85.259 76.1514 85.4826 76.2441 85.6503 76.4118C85.9996 76.7611 85.9996 77.3289 85.6503 77.6782C85.4813 77.8471 85.2565 77.9399 85.0177 77.9399C84.7789 77.9399 84.554 77.8471 84.3851 77.6782C84.1437 77.4369 84.0624 77.085 84.173 76.7585L84.314 76.3406L84.7319 76.1996C84.8233 76.1666 84.9211 76.1514 85.0202 76.1514ZM91.4578 60.1132C90.5572 60.1132 89.7798 60.634 89.4051 61.3898H84.1831L81.0469 64.5261V74.514L82.8455 76.3127C82.5763 77.1117 82.7579 78.0301 83.3943 78.6665C83.8414 79.1136 84.4283 79.3384 85.0151 79.3384C85.602 79.3384 86.1888 79.1149 86.636 78.6665C87.5315 77.7709 87.5315 76.319 86.636 75.4248C86.1888 74.9777 85.6033 74.7554 85.0189 74.7554C84.77 74.7554 84.521 74.796 84.2835 74.876L83.0805 73.6731V65.3695L85.0253 63.4248H89.4051C89.7798 64.1806 90.5572 64.7014 91.4578 64.7014C92.7243 64.7014 93.7506 63.675 93.7506 62.4086C93.7506 61.1421 92.7243 60.1132 91.4578 60.1132Z" fill="#F33535"/>
<path d="M66.9827 89.616C67.2215 89.616 67.4451 89.7087 67.6128 89.8764C67.7817 90.0453 67.8744 90.2701 67.8744 90.5089C67.8744 90.7477 67.7817 90.9726 67.6128 91.1415C67.4438 91.3105 67.219 91.4032 66.9802 91.4032C66.7414 91.4032 66.5165 91.3105 66.3476 91.1415C66.1062 90.9002 66.0249 90.5483 66.1355 90.2219L66.2764 89.8039L66.6944 89.6629C66.7858 89.6312 66.8836 89.616 66.9827 89.616ZM54.8811 93.4127L55.2761 93.6083C55.5848 93.762 55.7766 94.0682 55.7766 94.4086C55.7766 94.9027 55.3752 95.3041 54.8811 95.3041C54.3869 95.3041 53.9855 94.9027 53.9855 94.4086C53.9855 94.0682 54.1773 93.7608 54.486 93.6083L54.8811 93.4127ZM53.8649 75.9583V92.3584C53.1091 92.7331 52.5883 93.5105 52.5883 94.4111C52.5883 95.6776 53.6146 96.7039 54.8811 96.7039C56.1475 96.7039 57.1739 95.6776 57.1739 94.4111C57.1739 93.5105 56.653 92.7331 55.8973 92.3584V80.8652L64.8093 89.7773C64.54 90.5763 64.7217 91.4946 65.3581 92.131C65.8052 92.5782 66.392 92.803 66.9789 92.803C67.5658 92.803 68.1526 92.5794 68.5997 92.131C69.4953 91.2355 69.4953 89.7836 68.5997 88.8894C68.1526 88.4422 67.5683 88.22 66.9827 88.22C66.7337 88.22 66.4848 88.2606 66.2472 88.3406L53.8649 75.9583Z" fill="#F33535"/>
<path d="M41.1624 56.944C41.6565 56.944 42.0579 57.3454 42.0579 57.8395C42.0579 58.1799 41.8661 58.4873 41.5574 58.6397L41.1624 58.8354L40.7673 58.6397C40.4586 58.486 40.2668 58.1799 40.2668 57.8395C40.2668 57.3454 40.6695 56.944 41.1624 56.944ZM33.6349 89.616C33.7339 89.616 33.8317 89.6325 33.9257 89.663L34.3437 89.804L34.4847 90.2219C34.5939 90.5484 34.5126 90.9002 34.2725 91.1416C34.1036 91.3105 33.8787 91.4032 33.6399 91.4032C33.4011 91.4032 33.1763 91.3105 33.0074 91.1416C32.8384 90.9726 32.7457 90.7478 32.7457 90.509C32.7457 90.2702 32.8384 90.0454 33.0074 89.8764C33.1725 89.7075 33.3961 89.616 33.6349 89.616ZM41.1624 55.5467C39.8959 55.5467 38.8696 56.5731 38.8696 57.8395C38.8696 58.7401 39.3904 59.5175 40.1461 59.8922V82.5636L34.3703 88.3394C34.1315 88.2594 33.8826 88.2187 33.6349 88.2187C33.0493 88.2187 32.4637 88.441 32.0178 88.8882C31.1223 89.7837 31.1223 91.2356 32.0178 92.1298C32.465 92.577 33.0518 92.8018 33.6387 92.8018C34.2255 92.8018 34.8124 92.5782 35.2595 92.1298C35.8959 91.4934 36.0775 90.575 35.8083 89.7761L42.1798 83.4045V59.8909C42.9356 59.5162 43.4564 58.7388 43.4564 57.8382C43.4551 56.5731 42.4288 55.5467 41.1624 55.5467Z" fill="#F33535"/>
<path d="M10.7729 49.4127C11.0118 49.4127 11.2366 49.5054 11.4055 49.6743C11.6469 49.9157 11.7282 50.2675 11.6177 50.594L11.4767 51.0119L11.0588 51.1529C10.9648 51.1846 10.8682 51.1999 10.7679 51.1999C10.5291 51.1999 10.3055 51.1072 10.1378 50.9395C9.78851 50.5902 9.78851 50.0224 10.1378 49.673C10.3093 49.5066 10.5341 49.4127 10.7729 49.4127ZM32.686 71.3244C32.9248 71.3244 33.1484 71.4172 33.316 71.5848C33.6654 71.9341 33.6654 72.502 33.316 72.8513C33.1471 73.0202 32.9223 73.1129 32.6835 73.1129C32.4446 73.1129 32.2198 73.0202 32.0509 72.8513C31.8095 72.6099 31.7282 72.2581 31.8387 71.9316L31.9797 71.5137L32.3976 71.3727C32.4891 71.3397 32.5869 71.3244 32.686 71.3244ZM10.7729 48.0154C10.1861 48.0154 9.59924 48.2389 9.15211 48.6873C8.25659 49.5829 8.25659 51.0348 9.15211 51.929C9.59924 52.3761 10.1836 52.5984 10.7691 52.5984C11.0181 52.5984 11.2671 52.5578 11.5046 52.4778L30.5113 71.4845C30.242 72.2835 30.4237 73.2019 31.0601 73.8382C31.5072 74.2854 32.0941 74.5102 32.6809 74.5102C33.2678 74.5102 33.8546 74.2866 34.3018 73.8382C35.1973 72.9427 35.1973 71.4908 34.3018 70.5966C33.8546 70.1495 33.2703 69.9272 32.6847 69.9272C32.4358 69.9272 32.1868 69.9678 31.9492 70.0478L12.9425 51.0411C13.2118 50.2421 13.0302 49.3237 12.3938 48.6873C11.9467 48.2402 11.3598 48.0154 10.7729 48.0154Z" fill="#F33535"/>
<path d="M27.45 54.6511C27.7904 54.6511 28.0978 54.8429 28.2503 55.1516L28.4459 55.5466L28.2503 55.9417C28.0966 56.2504 27.7904 56.4422 27.45 56.4422C26.9559 56.4422 26.5545 56.0408 26.5545 55.5466C26.5545 55.0525 26.9559 54.6511 27.45 54.6511ZM34.303 61.4025L34.6981 61.5981C35.0067 61.7518 35.1985 62.0579 35.1985 62.3984C35.1985 62.8925 34.7971 63.2939 34.303 63.2939C33.8089 63.2939 33.4075 62.8925 33.4075 62.3984C33.4075 62.0579 33.5993 61.7505 33.908 61.5981L34.303 61.4025ZM27.45 53.2538C26.1836 53.2538 25.1572 54.2802 25.1572 55.5466C25.1572 56.8131 26.1836 57.8394 27.45 57.8394C28.3506 57.8394 29.128 57.3186 29.5027 56.5628H33.2868V60.3469C32.531 60.7216 32.0102 61.499 32.0102 62.3996C32.0102 63.6661 33.0366 64.6924 34.303 64.6924C35.5694 64.6924 36.5958 63.6661 36.5958 62.3996C36.5958 61.499 36.075 60.7216 35.3192 60.3469V54.5304H29.5027C29.1268 53.7746 28.3506 53.2538 27.45 53.2538Z" fill="#F33535"/>
<path d="M17.6323 67.7042C17.8711 67.7042 18.096 67.7969 18.2649 67.9659C18.5063 68.2072 18.5875 68.5591 18.477 68.8855L18.336 69.3035L17.9181 69.4444C17.8241 69.4762 17.7276 69.4915 17.6272 69.4915C17.3884 69.4915 17.1649 69.3987 16.9972 69.231C16.8283 69.0621 16.7355 68.8373 16.7355 68.5985C16.7355 68.3597 16.8283 68.1348 16.9972 67.9659C17.1661 67.7969 17.3935 67.7042 17.6323 67.7042ZM26.7756 87.3295C26.8746 87.3295 26.9725 87.3461 27.0665 87.3765L27.4844 87.5175L27.6254 87.9355C27.7346 88.2619 27.6533 88.6138 27.4132 88.8551C27.2443 89.0241 27.0195 89.1168 26.7806 89.1168C26.5418 89.1168 26.317 89.0241 26.1481 88.8551C25.9791 88.6862 25.8864 88.4613 25.8864 88.2225C25.8864 87.9837 25.9791 87.7589 26.1481 87.5899C26.3132 87.421 26.5368 87.3295 26.7756 87.3295ZM17.6323 66.3069C17.0455 66.3069 16.4586 66.5305 16.0115 66.9789C15.116 67.8744 15.116 69.3263 16.0115 70.2206C16.4586 70.6677 17.0429 70.89 17.6285 70.89C17.8775 70.89 18.1264 70.8494 18.364 70.7693L30.5787 82.984L27.5098 86.0529C27.271 85.9729 27.022 85.9323 26.7743 85.9323C26.1887 85.9323 25.6031 86.1546 25.1573 86.6017C24.2617 87.4972 24.2617 88.9491 25.1573 89.8434C25.6044 90.2905 26.1913 90.5153 26.7781 90.5153C27.365 90.5153 27.9518 90.2918 28.3989 89.8434C29.0353 89.207 29.217 88.2886 28.9477 87.4896L33.4533 82.984L19.8019 69.3327C20.0712 68.5337 19.8896 67.6153 19.2532 66.9789C18.806 66.5318 18.2192 66.3069 17.6323 66.3069Z" fill="#F33535"/>
<path d="M8.48657 69.9907C8.72538 69.9907 8.95021 70.0834 9.11916 70.2523C9.3605 70.4937 9.4418 70.8455 9.33129 71.172L9.19029 71.5899L8.77238 71.7309C8.67838 71.7627 8.58184 71.7779 8.48149 71.7779C8.24269 71.7779 8.01912 71.6852 7.85145 71.5175C7.50213 71.1682 7.50213 70.6004 7.85145 70.2511C8.02293 70.0847 8.24777 69.9907 8.48657 69.9907ZM18.9674 80.4702C19.2062 80.4702 19.4298 80.5629 19.5974 80.7306C19.9467 81.0799 19.9467 81.6477 19.5974 81.997C19.4285 82.166 19.2037 82.2587 18.9648 82.2587C18.726 82.2587 18.5012 82.166 18.3323 81.997C18.0909 81.7557 18.0096 81.4038 18.1201 81.0774L18.2611 80.6595L18.679 80.5185C18.7705 80.4854 18.8683 80.4702 18.9674 80.4702ZM8.48657 68.5934C7.89972 68.5934 7.31286 68.8169 6.86574 69.2653C5.97021 70.1609 5.97021 71.6128 6.86574 72.507C7.31286 72.9541 7.89718 73.1764 8.48276 73.1764C8.73173 73.1764 8.9807 73.1358 9.21824 73.0558L16.7927 80.6302C16.5234 81.4292 16.7051 82.3476 17.3415 82.984C17.7886 83.4312 18.3755 83.656 18.9623 83.656C19.5492 83.656 20.136 83.4324 20.5831 82.984C21.4787 82.0885 21.4787 80.6366 20.5831 79.7423C20.136 79.2952 19.5517 79.0729 18.9661 79.0729C18.7171 79.0729 18.4682 79.1136 18.2306 79.1936L10.6562 71.6191C10.9254 70.8201 10.7438 69.9017 10.1074 69.2653C9.66028 68.8182 9.07343 68.5934 8.48657 68.5934Z" fill="#F33535"/>
<path d="M153.91 68.7079C154.547 68.7079 155.044 69.1332 155.044 69.9129V75.2997C155.044 75.937 154.547 76.4331 153.909 76.4331H120.453C119.816 76.4331 119.532 75.937 119.532 75.2997V20.8627C119.532 20.2248 119.957 19.7286 120.667 19.7286H126.408C127.046 19.7286 127.542 20.2247 127.542 20.8627V68.7089L153.91 68.7079ZM190.343 61.7616C192.894 61.7616 194.666 60.4858 194.666 57.5089C194.666 48.7907 187.932 40.8516 177.584 40.8516C167.731 40.8516 160.005 48.6485 160.005 58.8555C160.005 69.487 168.085 76.7879 178.009 76.7879C184.317 76.7879 189.279 74.2362 192.327 70.1252C192.753 69.5581 192.611 69.1328 192.186 68.5658L190.84 66.7938C190.273 66.0856 189.706 66.1558 188.996 66.5811C186.729 68.424 182.972 69.9841 178.861 69.9841C173.048 69.9841 168.937 66.4401 168.158 61.7619L190.343 61.7616ZM168.157 55.7366C168.44 52.3343 171.63 47.9397 177.442 47.9397C183.325 47.9397 186.373 52.4052 186.586 55.7366H168.157ZM218.27 76.9303C228.193 76.9303 236.416 69.0631 236.416 58.9272C236.416 48.5785 228.193 40.8526 218.27 40.8526C208.346 40.8526 200.124 48.5789 200.124 58.9272C200.124 69.0631 208.346 76.9303 218.27 76.9303ZM218.27 69.7011C212.174 69.7011 207.638 64.6685 207.638 58.9981C207.638 53.1149 212.174 48.0823 218.27 48.0823C224.366 48.0823 228.902 53.1149 228.902 58.9981C228.902 64.6685 224.366 69.7011 218.27 69.7011ZM276.818 74.9464C276.96 75.726 276.748 76.4341 276.11 76.4341H271.503C269.66 76.4341 268.739 75.2299 268.739 73.5996V55.1704C268.739 50.4924 265.478 47.7988 260.8 47.7988C256.76 47.7988 253.357 49.7126 250.523 52.4767V75.3012C250.523 75.9385 250.027 76.4346 249.389 76.4346H243.859C243.222 76.4346 242.797 75.9385 242.797 75.3012V42.4826C242.797 41.8454 243.222 41.3485 243.859 41.3485H247.687C249.388 41.3485 250.451 43.1205 250.522 44.3964V45.1052C253.286 42.978 256.972 40.8517 261.791 40.8517C269.092 40.8517 276.393 45.4598 276.393 54.3198V70.0554C276.463 72.0401 276.605 73.5287 276.818 74.9464ZM314.881 74.8748C313.959 67.9285 313.891 61.479 314.173 54.6749C314.528 46.3109 309.921 40.9241 301.273 40.9241C295.603 40.9241 289.72 42.6252 286.247 44.539C285.609 44.8934 285.183 45.5307 285.467 46.1686L287.239 50.2797C287.522 50.9885 288.019 51.2011 288.94 50.7758C293.476 48.7203 297.162 47.728 300.777 47.728C304.605 47.728 306.873 49.2165 306.731 53.2566C293.618 55.524 283.624 57.863 283.624 67.0776C283.624 73.2444 288.089 76.7878 295.319 76.7878C301.345 76.7878 304.463 74.9456 307.44 72.6774C307.794 74.8038 308.432 76.4341 309.849 76.4341H314.102C314.739 76.4341 314.952 75.6544 314.881 74.8748ZM296.666 70.6935C293.76 70.6935 291.491 69.7012 291.491 67.0077C291.491 62.6839 299.429 61.2662 306.589 59.7778C306.518 62.1169 306.518 65.2358 306.589 67.2912C304.25 69.0632 300.281 70.6935 296.666 70.6935ZM347.841 43.1208C348.621 43.6169 348.833 44.0415 348.336 44.8212L345.431 49.0739C345.076 49.57 344.58 49.7118 343.942 49.57C342.454 48.8612 341.178 48.2233 338.839 48.2233C336.5 48.2233 332.814 49.2157 330.829 53.6101V75.3005C330.829 75.9377 330.404 76.4339 329.766 76.4339H324.166C323.528 76.4339 323.103 75.9377 323.103 75.3005V42.4819C323.103 41.8446 323.599 41.3477 324.166 41.3477H328.065C329.766 41.3477 330.829 43.1198 330.829 44.3956V44.8925C333.31 42.6243 336.287 41.0649 340.186 41.0649C343.801 41.0649 346.494 42.1993 347.841 43.1208ZM382.928 19.7305C384.558 19.7305 385.622 20.7951 385.622 22.2836V75.303C385.622 75.9402 385.126 76.4364 384.559 76.4364H381.652C380.235 76.4364 378.321 75.5156 377.967 73.8145C375.485 75.5865 372.153 76.9318 368.184 76.9318C358.19 76.9318 351.527 68.8522 351.527 58.5034C351.527 47.8711 359.679 41.0666 367.971 41.0666C372.366 41.0666 375.484 42.414 377.966 43.9019V25.8273C377.966 23.63 377.54 22.4958 377.328 21.22C377.186 20.4396 377.47 19.7308 378.107 19.7308L382.928 19.7305ZM359.112 58.5034C359.112 65.5208 363.649 69.7735 369.461 69.7735C372.934 69.7735 375.699 68.6394 377.967 67.3635V51.1315C375.344 49.4304 372.438 48.2254 369.178 48.2254C364.712 48.2254 359.112 51.2736 359.112 58.5034ZM410.854 76.9303C420.778 76.9303 429 69.0631 429 58.9272C429 48.5785 420.778 40.8526 410.854 40.8526C400.931 40.8526 392.709 48.5789 392.709 58.9272C392.709 69.0631 400.931 76.9303 410.854 76.9303ZM410.854 69.7011C404.759 69.7011 400.222 64.6685 400.222 58.9981C400.222 53.1149 404.758 48.0823 410.854 48.0823C416.95 48.0823 421.487 53.1149 421.487 58.9981C421.487 64.6685 416.95 69.7011 410.854 69.7011Z" fill="#F33535"/>
</g>
<defs>
<clipPath id="clip0_401_93">
<rect width="429" height="96.7091" fill="white"/>
</clipPath>
</defs>
</svg>
